<svg version="1.2" xmlns="http://www.w3.org/2000/svg" viewBox="0 0 1080 1080" width="1080" height="1080">
	<title>GooglePark</title>
	<defs>
		<clipPath clipPathUnits="userSpaceOnUse" id="cp1">
			<path d="m882.12 396.74l0.63 135.11q-0.38-0.34-0.75-0.67v4.82h-121v-48h72.29q-2.01-1.76-4-3.49l-0.31-66.42-170.66-169.09-240.23 1.11-169.09 170.66 1.11 240.24 170.66 169.08 240.24-1.11 155.53-156.98h-54.54v-48h121v7q0.1 0 0.21 0l0.22 49.53-199.73 201.59-283.79 1.31-201.6-199.73-1.31-283.79 199.74-201.6 283.79-1.31z"/>
		</clipPath>
	</defs>
	<style>
		.s0 { fill: #ffffff } 
		.s1 { fill: #ffba00;stroke: #000000;stroke-miterlimit:100;stroke-width: 0 } 
		.s2 { fill: #2684fc;stroke: #ffffff;stroke-miterlimit:100;stroke-width: 0 } 
		.s3 { fill: #00ac47;stroke: #ffffff;stroke-miterlimit:100;stroke-width: 0 } 
		.s4 { fill: #ffba00;stroke: #ffffff;stroke-miterlimit:100;stroke-width: 0 } 
		.s5 { mix-blend-mode: darken;fill: #0066da;stroke: #ffffff;stroke-miterlimit:100;stroke-width: 0 } 
		.s6 { fill: #ea4335;stroke: #ffffff;stroke-miterlimit:100;stroke-width: 0 } 
		.s7 { fill: #00832d;stroke: #ffffff;stroke-miterlimit:100;stroke-width: 0 } 
		.s8 { fill: #ea4335;stroke: #ffffff;stroke-miterlimit:100;stroke-width: 3 } 
		.s9 { fill: #000000;stroke: #ffffff;stroke-miterlimit:100;stroke-width: 3 } 
		.s10 { fill: #00832d } 
		.s11 { fill: #0066da } 
		.s12 { fill: #ea4335 } 
		.s13 { fill: #ffba00 } 
	</style>
	<path id="G octo back" class="s0" d="m922.6 379.5l1.5 317.5-223.5 225.6-317.6 1.5-225.5-223.5-1.5-317.6 223.5-225.5 317.5-1.5z"/>
	<path id="top park copy" class="s1" d="m358 434v63h-151v-63z"/>
	<path id="top park copy 2" class="s1" d="m391 509v63h-184v-63z"/>
	<path id="top park copy 3" class="s1" d="m358 584v63h-151v-63z"/>
	<g id="P shape">
		<path id="trap blue" class="s2" d="m729 522l-212 129.5 0.5-116.3 120.5-65.2z"/>
		<path id="trap green octo" class="s3" d="m518 290l-1 552.9-101.5 1.2 1.5-495.9z"/>
		<path id="trap yellow" class="s4" d="m730 414.5l-92 53.5-120-65v-114z"/>
		<path id="corner blue" class="s5" d="m518.3 649.6l-101.3-57.3 101.3-57.3z"/>
		<path id="corner red" class="s6" d="m730 522.4l-93-53.7 93-53.7z"/>
		<path id="corner green" class="s7" d="m518 403l-99-56 99-56z"/>
	</g>
	<path id="Play button" class="s8" d="m610.8 469.5l-78.8 45.5v-91z"/>
	<g clip-path="url(#cp1)">
		<path id="G octo" fill-rule="evenodd" class="s9" d="m882.1 396.7l0.6 135.1q-0.3-0.3-0.7-0.6v4.8h-121v-48h72.3q-2-1.8-4-3.5l-0.3-66.4-170.7-169.1-240.2 1.1-169.1 170.7 1.1 240.2 170.7 169.1 240.2-1.1 155.5-157h-54.5v-48h121v7q0.1 0 0.2 0l0.2 49.5-199.7 201.6-283.8 1.3-201.6-199.7-1.3-283.8 199.7-201.6 283.8-1.3z"/>
		<path id="Shape 10" class="s10" d="m553.5 31.4v646.5l-307.5 298.1-255-533z"/>
		<path id="Shape 10 copy 2" class="s11" d="m973.5 833.9l-426 192-438-204 420-303z"/>
		<path id="Shape 10 copy 3" class="s12" d="m928.5 320.9l19.5 510-253-106.5-66-268.5z"/>
		<path id="Shape 10 copy" class="s13" d="m996 298.4l-478 249 7-493.5z"/>
	</g>
</svg>